Coordinates
version=1
nRows=23
nColumns=15
inDegrees=yes

Units are S.I. units (second, meters, Newtons, ...)
Angles are in degrees.

endheader
time	sacrum_pitch	sacrum_roll	sacrum_yaw	sacrum_x	sacrum_y	sacrum_z	sacroiliac_flx	hip_flx	hip_add	hip_int	knee_flx	ankle_flx	ankle_add	ankle_int
0.00500000	30.00000000	0.00000000	0.00000000	0.08700000	0.06300000	0.00000000	0.00000000	-8.80793114	0.00000000	0.00000000	-107.41365877	-22.62140684	0.00000000	0.00000000
0.01000000	30.00000000	0.00000000	0.00000000	0.08665927	0.06296233	0.00000000	0.00000000	-8.42842471	0.00000000	0.00000000	-107.77588897	-22.69250761	0.00000000	0.00000000
0.01500000	30.00000000	0.00000000	0.00000000	0.08636552	0.06294628	0.00000000	0.00000000	-8.82048191	0.00000000	0.00000000	-107.42894558	-22.84321764	0.00000000	0.00000000
0.02000000	30.00000000	0.00000000	0.00000000	0.08605537	0.06293390	0.00000000	0.00000000	-8.70424457	0.00000000	0.00000000	-107.64029537	-23.00399473	0.00000000	0.00000000
0.02500000	30.00000000	0.00000000	0.00000000	0.08564481	0.06282545	0.00000000	0.00000000	-8.97238244	0.00000000	0.00000000	-107.55367782	-23.20822200	0.00000000	0.00000000
0.03000000	30.00000000	0.00000000	0.00000000	0.08532011	0.06284577	0.00000000	0.00000000	-9.07149251	0.00000000	0.00000000	-107.66879728	-23.27077813	0.00000000	0.00000000
0.03500000	30.00000000	0.00000000	0.00000000	0.08488398	0.06273870	0.00000000	0.00000000	-9.14814530	0.00000000	0.00000000	-107.77994299	-23.53375568	0.00000000	0.00000000
0.04000000	30.00000000	0.00000000	0.00000000	0.08451416	0.06271838	0.00000000	0.00000000	-9.21431374	0.00000000	0.00000000	-107.73561339	-23.62277995	0.00000000	0.00000000
0.04500000	30.00000000	0.00000000	0.00000000	0.08421011	0.06274098	0.00000000	0.00000000	-9.21835449	0.00000000	0.00000000	-107.81393245	-23.70744892	0.00000000	0.00000000
0.05000000	30.00000000	0.00000000	0.00000000	0.08387310	0.06276250	0.00000000	0.00000000	-9.30696754	0.00000000	0.00000000	-107.67396825	-23.77899587	0.00000000	0.00000000
0.05500000	30.00000000	0.00000000	0.00000000	0.08350833	0.06274696	0.00000000	0.00000000	-9.34936483	0.00000000	0.00000000	-107.68797852	-24.05947624	0.00000000	0.00000000
0.06000000	30.00000000	0.00000000	0.00000000	0.08321220	0.06278023	0.00000000	0.00000000	-9.39677568	0.00000000	0.00000000	-107.54925170	-23.96200483	0.00000000	0.00000000
0.06500000	30.00000000	0.00000000	0.00000000	0.08300135	0.06283273	0.00000000	0.00000000	-9.40974793	0.00000000	0.00000000	-107.45045162	-23.99109427	0.00000000	0.00000000
0.07000000	30.00000000	0.00000000	0.00000000	0.08273230	0.06283378	0.00000000	0.00000000	-9.27617208	0.00000000	0.00000000	-107.39387289	-24.02425569	0.00000000	0.00000000
0.07500000	30.00000000	0.00000000	0.00000000	0.08249820	0.06284841	0.00000000	0.00000000	-9.26167883	0.00000000	0.00000000	-107.21233195	-24.17029440	0.00000000	0.00000000
0.08000000	30.00000000	0.00000000	0.00000000	0.08230168	0.06286545	0.00000000	0.00000000	-9.28300226	0.00000000	0.00000000	-107.00132609	-24.44636982	0.00000000	0.00000000
0.08500000	30.00000000	0.00000000	0.00000000	0.08209339	0.06289330	0.00000000	0.00000000	-9.30083186	0.00000000	0.00000000	-106.83407645	-24.65888449	0.00000000	0.00000000
0.09000000	30.00000000	0.00000000	0.00000000	0.08193205	0.06291254	0.00000000	0.00000000	-9.24890172	0.00000000	0.00000000	-106.74796946	-24.94460799	0.00000000	0.00000000
0.09500000	30.00000000	0.00000000	0.00000000	0.08179317	0.06291830	0.00000000	0.00000000	-9.22937306	0.00000000	0.00000000	-106.57133428	-25.24948771	0.00000000	0.00000000
0.10000000	30.00000000	0.00000000	0.00000000	0.08165967	0.06291269	0.00000000	0.00000000	-9.13254348	0.00000000	0.00000000	-106.46037739	-25.59733637	0.00000000	0.00000000
0.10500000	30.00000000	0.00000000	0.00000000	0.08153065	0.06293970	0.00000000	0.00000000	-9.44711240	0.00000000	0.00000000	-106.14682843	-25.99461917	0.00000000	0.00000000
0.11000000	30.00000000	0.00000000	0.00000000	0.08141619	0.06293407	0.00000000	0.00000000	-9.55591890	0.00000000	0.00000000	-105.88378578	-26.42248398	0.00000000	0.00000000
0.11500000	30.00000000	0.00000000	0.00000000	0.08131509	0.06292340	0.00000000	0.00000000	-9.53975298	0.00000000	0.00000000	-105.82865691	-26.85249252	0.00000000	0.00000000
